<svg xmlns="http://www.w3.org/2000/svg" xmlns:xlink="http://www.w3.org/1999/xlink" width="500" zoomAndPan="magnify" viewBox="0 0 375 374.999991" height="500" preserveAspectRatio="xMidYMid meet" version="1.0"><defs><g/><clipPath id="7b9ec0efd9"><rect x="0" width="195" y="0" height="363"/></clipPath><clipPath id="da33891240"><rect x="0" width="315" y="0" height="375"/></clipPath></defs><g transform="matrix(1, 0, 0, 1, 90, 12)"><g clip-path="url(#7b9ec0efd9)"><g fill="#f1efe7" fill-opacity="1"><g transform="translate(1.505302, 296.208693)"><g><path d="M 93.503906 9.777344 C 84.414062 9.777344 75.09375 9.042969 65.535156 7.570312 C 55.882812 6.085938 46.832031 3.789062 38.382812 0.683594 C 29.679688 -2.515625 22.570312 -6.34375 17.0625 -10.808594 L 14.957031 -12.507812 L 10.4375 -77.050781 L 25.265625 -78.53125 L 26.632812 -73.421875 C 32.699219 -50.726562 41.40625 -34.523438 52.75 -24.8125 C 63.976562 -15.207031 78.46875 -10.074219 96.222656 -9.417969 L 95.992188 -3.199219 L 89.769531 -3.199219 L 89.769531 -105.589844 L 95.992188 -105.589844 L 93.320312 -99.96875 C 83.820312 -104.480469 74.320312 -109.054688 64.824219 -113.683594 C 55.007812 -118.46875 45.984375 -123.875 37.746094 -129.898438 C 29.148438 -136.1875 22.265625 -143.527344 17.097656 -151.925781 C 11.742188 -160.628906 9.066406 -170.898438 9.066406 -182.738281 C 9.066406 -194.511719 12.246094 -205.917969 18.605469 -216.953125 C 24.960938 -227.972656 34.53125 -237.253906 47.324219 -244.800781 C 60.050781 -252.3125 76.167969 -256.566406 95.671875 -257.566406 L 95.992188 -251.355469 L 89.769531 -251.355469 L 89.769531 -290.640625 L 107.902344 -290.640625 L 107.902344 -251.355469 L 101.679688 -251.355469 L 101.679688 -257.574219 L 103.101562 -257.574219 C 115.9375 -257.574219 128.054688 -256.152344 139.453125 -253.300781 C 150.914062 -250.433594 160.808594 -246.605469 169.132812 -241.8125 L 171.917969 -240.210938 L 176.65625 -190.65625 L 163.042969 -187.632812 L 161.015625 -192.382812 C 153.941406 -208.972656 145.320312 -220.476562 135.152344 -226.894531 C 124.777344 -233.449219 113.46875 -237.164062 101.234375 -238.039062 L 101.679688 -244.242188 L 107.902344 -244.242188 L 107.902344 -139.363281 L 101.679688 -139.363281 L 104.195312 -145.054688 C 116.671875 -139.535156 128.671875 -133.65625 140.195312 -127.414062 C 152.226562 -120.894531 162.164062 -113.148438 170.003906 -104.171875 C 178.375 -94.585938 182.558594 -82.613281 182.558594 -68.261719 C 182.558594 -54.089844 179.191406 -41.304688 172.453125 -29.898438 C 165.722656 -18.511719 156.304688 -9.40625 144.199219 -2.578125 C 132.257812 4.152344 118.246094 8.144531 102.164062 9.402344 L 101.679688 3.199219 L 107.902344 3.199219 L 107.902344 52.441406 L 89.769531 52.441406 L 89.769531 3.554688 L 95.992188 3.554688 L 95.992188 9.777344 Z M 93.503906 -2.667969 L 102.210938 -2.667969 L 102.210938 46.21875 L 95.992188 46.21875 L 95.992188 39.996094 L 101.679688 39.996094 L 101.679688 46.21875 L 95.457031 46.21875 L 95.457031 -2.554688 L 101.195312 -3.003906 C 115.449219 -4.117188 127.746094 -7.589844 138.085938 -13.417969 C 148.257812 -19.152344 156.140625 -26.757812 161.738281 -36.230469 C 167.324219 -45.679688 170.117188 -56.359375 170.117188 -68.261719 C 170.117188 -79.503906 166.953125 -88.746094 160.632812 -95.988281 C 153.773438 -103.839844 144.988281 -110.667969 134.269531 -116.472656 C 123.039062 -122.554688 111.335938 -128.289062 99.164062 -133.675781 L 95.457031 -135.3125 L 95.457031 -250.925781 L 102.121094 -250.449219 C 116.433594 -249.425781 129.660156 -245.082031 141.796875 -237.414062 C 154.148438 -229.613281 164.371094 -216.230469 172.460938 -197.265625 L 166.738281 -194.824219 L 165.390625 -200.898438 L 168.589844 -201.609375 L 169.9375 -195.535156 L 163.746094 -194.945312 L 159.835938 -235.828125 L 166.027344 -236.421875 L 162.925781 -231.03125 C 155.605469 -235.242188 146.773438 -238.644531 136.433594 -241.230469 C 126.027344 -243.832031 114.914062 -245.132812 103.101562 -245.132812 L 95.457031 -245.132812 L 95.457031 -284.417969 L 101.679688 -284.417969 L 101.679688 -278.195312 L 95.992188 -278.195312 L 95.992188 -284.417969 L 102.210938 -284.417969 L 102.210938 -245.441406 L 96.308594 -245.140625 C 78.839844 -244.242188 64.617188 -240.558594 53.644531 -234.085938 C 42.734375 -227.648438 34.648438 -219.867188 29.386719 -210.738281 C 24.136719 -201.628906 21.507812 -192.292969 21.507812 -182.738281 C 21.507812 -173.246094 23.570312 -165.148438 27.695312 -158.445312 C 32.011719 -151.4375 37.808594 -145.269531 45.089844 -139.941406 C 52.734375 -134.355469 61.128906 -129.328125 70.277344 -124.871094 C 79.738281 -120.257812 89.199219 -115.703125 98.660156 -111.210938 L 102.210938 -109.523438 L 102.210938 3.257812 L 95.761719 3.019531 C 75.117188 2.253906 58.085938 -3.871094 44.660156 -15.359375 C 31.359375 -26.742188 21.339844 -45.027344 14.609375 -70.207031 L 20.621094 -71.816406 L 21.238281 -65.625 L 17.683594 -65.269531 L 17.066406 -71.460938 L 23.273438 -71.894531 L 27.183594 -16.078125 L 20.976562 -15.644531 L 24.890625 -20.480469 C 29.332031 -16.882812 35.261719 -13.71875 42.675781 -10.996094 C 50.34375 -8.175781 58.59375 -6.085938 67.429688 -4.726562 C 76.359375 -3.351562 85.050781 -2.667969 93.503906 -2.667969 Z M 42.128906 -200.515625 C 42.128906 -192.269531 44.507812 -185.226562 49.265625 -179.375 C 54.480469 -172.96875 61.324219 -167.289062 69.800781 -162.335938 C 78.742188 -157.109375 88.328125 -152.167969 98.566406 -147.515625 L 95.992188 -141.851562 L 89.769531 -141.851562 L 89.769531 -244.597656 L 95.992188 -244.597656 L 95.992188 -238.375 L 92.792969 -238.375 C 81.007812 -238.375 71.359375 -236.417969 63.847656 -232.503906 C 56.449219 -228.648438 50.980469 -223.832031 47.429688 -218.054688 C 43.898438 -212.300781 42.128906 -206.453125 42.128906 -200.515625 Z M 29.6875 -200.515625 C 29.6875 -208.796875 32.066406 -216.8125 36.828125 -224.566406 C 41.574219 -232.300781 48.664062 -238.625 58.097656 -243.539062 C 67.410156 -248.394531 78.976562 -250.820312 92.792969 -250.820312 L 102.210938 -250.820312 L 102.210938 -132.191406 L 93.417969 -136.1875 C 82.792969 -141.015625 72.828125 -146.152344 63.519531 -151.589844 C 53.746094 -157.304688 45.777344 -163.949219 39.613281 -171.523438 C 32.996094 -179.660156 29.6875 -189.324219 29.6875 -200.515625 Z M 101.515625 -9.417969 C 117.792969 -9.847656 129.484375 -13.871094 136.59375 -21.488281 C 143.773438 -29.179688 147.363281 -38.492188 147.363281 -49.417969 C 147.363281 -56.816406 145.402344 -63.167969 141.476562 -68.46875 C 137.191406 -74.25 131.464844 -79.421875 124.292969 -83.988281 C 116.722656 -88.804688 108.332031 -93.285156 99.125 -97.425781 L 101.679688 -103.101562 L 107.902344 -103.101562 L 107.902344 -3.199219 L 101.679688 -3.199219 Z M 95.457031 3.1875 L 95.457031 -112.722656 L 104.230469 -108.773438 C 113.984375 -104.386719 122.898438 -99.621094 130.972656 -94.484375 C 139.441406 -89.09375 146.277344 -82.890625 151.472656 -75.875 C 157.03125 -68.375 159.808594 -59.554688 159.808594 -49.417969 C 159.808594 -35.222656 155.101562 -23.082031 145.691406 -12.996094 C 136.210938 -2.839844 121.59375 2.5 101.84375 3.019531 Z M 95.457031 3.1875 "/></g></g></g><g fill="#000000" fill-opacity="1"><g transform="translate(1.505302, 296.208693)"><g><path d="M 93.5 3.5625 C 84.726562 3.5625 75.71875 2.847656 66.46875 1.421875 C 57.226562 -0.00390625 48.578125 -2.195312 40.515625 -5.15625 C 32.460938 -8.113281 25.945312 -11.609375 20.96875 -15.640625 L 17.0625 -71.453125 L 20.625 -71.8125 C 27.019531 -47.875 36.378906 -30.628906 48.703125 -20.078125 C 61.023438 -9.535156 76.785156 -3.910156 95.984375 -3.203125 L 95.984375 -105.59375 C 86.503906 -110.09375 77.023438 -114.648438 67.546875 -119.265625 C 58.066406 -123.890625 49.351562 -129.101562 41.40625 -134.90625 C 33.46875 -140.71875 27.128906 -147.472656 22.390625 -155.171875 C 17.648438 -162.878906 15.28125 -172.066406 15.28125 -182.734375 C 15.28125 -193.398438 18.179688 -203.769531 23.984375 -213.84375 C 29.796875 -223.914062 38.628906 -232.445312 50.484375 -239.4375 C 62.335938 -246.425781 77.503906 -250.394531 95.984375 -251.34375 L 95.984375 -284.40625 L 101.671875 -284.40625 L 101.671875 -251.34375 L 103.09375 -251.34375 C 115.425781 -251.34375 127.039062 -249.976562 137.9375 -247.25 C 148.84375 -244.53125 158.207031 -240.921875 166.03125 -236.421875 L 169.9375 -195.53125 L 166.734375 -194.828125 C 159.148438 -212.597656 149.726562 -225.035156 138.46875 -232.140625 C 127.21875 -239.253906 114.953125 -243.285156 101.671875 -244.234375 L 101.671875 -139.359375 C 114.003906 -133.910156 125.859375 -128.101562 137.234375 -121.9375 C 148.609375 -115.78125 157.96875 -108.492188 165.3125 -100.078125 C 172.65625 -91.660156 176.328125 -81.054688 176.328125 -68.265625 C 176.328125 -55.222656 173.242188 -43.488281 167.078125 -33.0625 C 160.921875 -22.632812 152.273438 -14.28125 141.140625 -8 C 130.003906 -1.71875 116.847656 2.015625 101.671875 3.203125 L 101.671875 46.21875 L 95.984375 46.21875 L 95.984375 3.5625 Z M 35.90625 -200.515625 C 35.90625 -190.796875 38.75 -182.4375 44.4375 -175.4375 C 50.125 -168.445312 57.53125 -162.285156 66.65625 -156.953125 C 75.78125 -151.628906 85.554688 -146.59375 95.984375 -141.84375 L 95.984375 -244.59375 L 92.796875 -244.59375 C 79.992188 -244.59375 69.382812 -242.398438 60.96875 -238.015625 C 52.550781 -233.628906 46.269531 -228.054688 42.125 -221.296875 C 37.976562 -214.546875 35.90625 -207.617188 35.90625 -200.515625 Z M 101.671875 -3.203125 C 119.691406 -3.671875 132.847656 -8.347656 141.140625 -17.234375 C 149.429688 -26.128906 153.578125 -36.859375 153.578125 -49.421875 C 153.578125 -58.191406 151.207031 -65.773438 146.46875 -72.171875 C 141.726562 -78.566406 135.445312 -84.253906 127.625 -89.234375 C 119.800781 -94.210938 111.148438 -98.832031 101.671875 -103.09375 Z M 101.671875 -3.203125 "/></g></g></g></g></g><g transform="matrix(1, 0, 0, 1, 36, 0)"><g clip-path="url(#da33891240)"><g fill="#f1efe7" fill-opacity="1"><g transform="translate(0.827441, 253.894893)"><g><path d="M 302.214844 -7.34375 L 311.578125 -7.34375 L 311.578125 3.988281 L 230.734375 3.988281 L 230.734375 -7.011719 L 239.757812 -7.011719 C 242.371094 -7.011719 244.621094 -8.074219 246.515625 -10.203125 C 248.402344 -12.328125 249.195312 -14.582031 248.898438 -16.96875 L 248.890625 -17.035156 L 233.773438 -186.011719 L 237.742188 -186.367188 L 241.378906 -184.730469 L 170.863281 -27.914062 C 164.746094 -14.585938 161.042969 -3.523438 159.753906 5.277344 L 159.257812 8.6875 L 149.898438 8.6875 L 62.867188 -179.996094 L 66.488281 -181.664062 L 70.460938 -181.316406 L 56.015625 -17.039062 L 56.003906 -16.96875 C 55.707031 -14.582031 56.5 -12.328125 58.386719 -10.203125 C 60.28125 -8.074219 62.421875 -7.011719 64.808594 -7.011719 L 74.167969 -7.011719 L 74.167969 3.988281 L 1.050781 3.988281 L 1.050781 -7.34375 L 10.410156 -7.34375 C 15.71875 -7.34375 20.300781 -8.941406 24.148438 -12.136719 C 27.945312 -15.28125 30.21875 -19.589844 30.972656 -25.058594 L 56.558594 -243.746094 L 66.015625 -243.746094 L 160.773438 -38.949219 L 157.152344 -37.273438 L 153.519531 -38.917969 L 246.253906 -243.746094 L 255.382812 -243.746094 L 281.664062 -24.988281 C 282.597656 -17.519531 286.304688 -12.300781 292.792969 -9.335938 C 295.636719 -8.007812 298.777344 -7.34375 302.214844 -7.34375 Z M 302.214844 0.628906 C 297.597656 0.628906 293.351562 -0.273438 289.476562 -2.082031 C 280.292969 -6.28125 275.050781 -13.597656 273.746094 -24.039062 L 247.886719 -239.28125 L 251.847656 -239.757812 L 251.847656 -235.769531 L 248.824219 -235.769531 L 248.824219 -239.757812 L 252.457031 -238.113281 L 157.191406 -27.691406 L 59.847656 -238.085938 L 63.464844 -239.757812 L 63.464844 -235.769531 L 60.109375 -235.769531 L 60.109375 -239.757812 L 64.066406 -239.296875 L 38.871094 -23.96875 C 37.835938 -16.453125 34.625 -10.460938 29.242188 -5.996094 C 23.914062 -1.578125 17.636719 0.628906 10.410156 0.628906 L 5.035156 0.628906 L 5.035156 -3.359375 L 9.023438 -3.359375 L 9.023438 0 L 5.035156 0 L 5.035156 -3.988281 L 70.179688 -3.988281 L 70.179688 0 L 66.195312 0 L 66.195312 -3.023438 L 70.179688 -3.023438 L 70.179688 0.964844 L 64.808594 0.964844 C 60.03125 0.964844 55.90625 -0.992188 52.425781 -4.90625 C 48.9375 -8.828125 47.496094 -13.179688 48.089844 -17.957031 L 52.046875 -17.460938 L 48.074219 -17.8125 L 63.828125 -196.949219 L 156.074219 3.03125 L 152.453125 4.699219 L 152.453125 0.714844 L 155.808594 0.714844 L 155.808594 4.699219 L 151.863281 4.125 C 153.261719 -5.433594 157.171875 -17.203125 163.589844 -31.183594 L 240.355469 -201.902344 L 256.828125 -17.816406 L 252.855469 -17.460938 L 256.8125 -17.957031 C 257.410156 -13.179688 255.964844 -8.828125 252.476562 -4.90625 C 248.996094 -0.992188 244.757812 0.964844 239.757812 0.964844 L 234.722656 0.964844 L 234.722656 -3.023438 L 238.710938 -3.023438 L 238.710938 0 L 234.722656 0 L 234.722656 -3.988281 L 307.589844 -3.988281 L 307.589844 0 L 303.601562 0 L 303.601562 -3.359375 L 307.589844 -3.359375 L 307.589844 0.628906 Z M 302.214844 0.628906 "/></g></g></g><g fill="#000000" fill-opacity="1"><g transform="translate(0.827441, 253.894893)"><g><path d="M 302.21875 -3.359375 L 307.59375 -3.359375 L 307.59375 0 L 234.71875 0 L 234.71875 -3.015625 L 239.765625 -3.015625 C 243.566406 -3.015625 246.8125 -4.523438 249.5 -7.546875 C 252.1875 -10.578125 253.304688 -13.882812 252.859375 -17.46875 L 237.75 -186.375 L 167.234375 -29.546875 C 160.960938 -15.890625 157.15625 -4.472656 155.8125 4.703125 L 152.453125 4.703125 L 66.484375 -181.671875 L 52.046875 -17.46875 C 51.597656 -13.882812 52.71875 -10.578125 55.40625 -7.546875 C 58.09375 -4.523438 61.226562 -3.015625 64.8125 -3.015625 L 70.1875 -3.015625 L 70.1875 0 L 5.03125 0 L 5.03125 -3.359375 L 10.40625 -3.359375 C 16.675781 -3.359375 22.101562 -5.257812 26.6875 -9.0625 C 31.28125 -12.875 34.023438 -18.023438 34.921875 -24.515625 L 60.109375 -239.765625 L 63.46875 -239.765625 L 157.15625 -37.28125 L 248.828125 -239.765625 L 251.84375 -239.765625 L 277.703125 -24.515625 C 278.828125 -15.554688 283.304688 -9.285156 291.140625 -5.703125 C 294.492188 -4.140625 298.1875 -3.359375 302.21875 -3.359375 Z M 302.21875 -3.359375 "/></g></g></g></g></g></svg>